<?xml version="1.0" encoding="utf-8"?>
<svg version="1.1" xmlns:xlink="http://www.w3.org/1999/xlink" width="10px" height="6px" xmlns="http://www.w3.org/2000/svg">
  <g transform="matrix(1 0 0 1 -1057 -37 )">
    <path d="M 9.899799599198397 0.6185567010309276  C 9.966599866399466 0.6872852233676958  10 0.7663230240549821  10 0.8556701030927838  C 10 0.9450171821305835  9.966599866399466 1.0240549828178684  9.899799599198397 1.0927835051546393  L 5.230460921843687 5.896907216494845  C 5.163660654642619 5.9656357388316135  5.08684034736139 6  5 6  C 4.913159652638611 6  4.836339345357382 5.9656357388316135  4.7695390781563125 5.896907216494845  L 0.1002004008016032 1.0927835051546393  C 0.033400133600534496 1.0240549828178684  0 0.9450171821305835  0 0.8556701030927838  C 0 0.7663230240549821  0.033400133600534496 0.6872852233676958  0.1002004008016032 0.6185567010309276  L 0.6012024048096192 0.10309278350515494  C 0.6680026720106882 0.03436426116838409  0.7448229792919172 0  0.8316633266533067 0  C 0.9185036740146962 0  0.9953239812959253 0.03436426116838409  1.062124248496994 0.10309278350515494  L 5 4.154639175257731  L 8.937875751503006 0.10309278350515494  C 9.004676018704075 0.03436426116838409  9.081496325985304 0  9.168336673346694 0  C 9.255177020708084 0  9.331997327989313 0.03436426116838409  9.39879759519038 0.10309278350515494  L 9.899799599198397 0.6185567010309276  Z " fill-rule="nonzero" fill="#7f7f7f" stroke="none" transform="matrix(1 0 0 1 1057 37 )" />
  </g>
</svg>